HIERARCHY
ROOT reference
{
  OFFSET 0 0 0
  CHANNELS 6 Xposition Yposition Zposition Zrotation Xrotation Yrotation
  JOINT Hips
  {
    OFFSET 18.9463 95.359 90.1872
    CHANNELS 6 Xposition Yposition Zposition Zrotation Xrotation Yrotation
    JOINT Spine
    {
      OFFSET 0 8.22665 0
      CHANNELS 6 Xposition Yposition Zposition Zrotation Xrotation Yrotation
      JOINT Spine1
      {
        OFFSET 0 24.451 0
        CHANNELS 6 Xposition Yposition Zposition Zrotation Xrotation Yrotation
        JOINT Neck
        {
          OFFSET 0 24.3506 2.21369
          CHANNELS 6 Xposition Yposition Zposition Zrotation Xrotation Yrotation
          JOINT Head
          {
            OFFSET 0 14.0455 -2.0065
            CHANNELS 6 Xposition Yposition Zposition Zrotation Xrotation Yrotation
            End Site
            {
              OFFSET 0 25.0812 0
            }
          }
        }
        JOINT LeftShoulder
        {
          OFFSET 4.0594 22.2558 -0.272799
          CHANNELS 6 Xposition Yposition Zposition Zrotation Xrotation Yrotation
          JOINT LeftArm
          {
            OFFSET 12.0298 0 0
            CHANNELS 6 Xposition Yposition Zposition Zrotation Xrotation Yrotation
            JOINT LeftForeArm
            {
              OFFSET 31.2689 0 0
              CHANNELS 6 Xposition Yposition Zposition Zrotation Xrotation Yrotation
              JOINT LeftHand
              {
                OFFSET 28.0275 0 0
                CHANNELS 6 Xposition Yposition Zposition Zrotation Xrotation Yrotation
                End Site
                {
                  OFFSET 15.0487 0 0
                }
              }
            }
          }
        }
        JOINT RightShoulder
        {
          OFFSET -3.96464 22.2558 -0.272799
          CHANNELS 6 Xposition Yposition Zposition Zrotation Xrotation Yrotation
          JOINT RightArm
          {
            OFFSET -12.0298 0 0
            CHANNELS 6 Xposition Yposition Zposition Zrotation Xrotation Yrotation
            JOINT RightForeArm
            {
              OFFSET -31.2689 0 0
              CHANNELS 6 Xposition Yposition Zposition Zrotation Xrotation Yrotation
              JOINT RightHand
              {
                OFFSET -28.0275 0 0
                CHANNELS 6 Xposition Yposition Zposition Zrotation Xrotation Yrotation
                End Site
                {
                  OFFSET -15.0487 0 0
                }
              }
            }
          }
        }
      }
    }
    JOINT LeftUpLeg
    {
      OFFSET 10.0325 0 0
      CHANNELS 6 Xposition Yposition Zposition Zrotation Xrotation Yrotation
      JOINT LeftLeg
      {
        OFFSET 0 -38.4033 0
        CHANNELS 6 Xposition Yposition Zposition Zrotation Xrotation Yrotation
        JOINT LeftFoot
        {
          OFFSET 0 -44.1642 0
          CHANNELS 6 Xposition Yposition Zposition Zrotation Xrotation Yrotation
          JOINT LeftToeBase
          {
            OFFSET 0 -6.52112 15.0487
            CHANNELS 6 Xposition Yposition Zposition Zrotation Xrotation Yrotation
            End Site
            {
              OFFSET 0 0 4.013
            }
          }
        }
      }
    }
    JOINT RightUpLeg
    {
      OFFSET -10.0325 0 0
      CHANNELS 6 Xposition Yposition Zposition Zrotation Xrotation Yrotation
      JOINT RightLeg
      {
        OFFSET 0 -38.4033 0
        CHANNELS 6 Xposition Yposition Zposition Zrotation Xrotation Yrotation
        JOINT RightFoot
        {
          OFFSET 0 -44.1642 0
          CHANNELS 6 Xposition Yposition Zposition Zrotation Xrotation Yrotation
          JOINT RightToeBase
          {
            OFFSET 0 -6.52112 15.0487
            CHANNELS 6 Xposition Yposition Zposition Zrotation Xrotation Yrotation
            End Site
            {
              OFFSET 0 0 4.013
            }
          }
        }
      }
    }
  }
}
MOTION
Frames:	5
Frame Time:	0.004
0 0 0 0 0 -0 -22.9147 85.9155 -211.727 0.753565 -2.81754 3.30677 -3.55271e-015 8.22665 2.84217e-014 -0.271268 -4.18424 -0.0787983 0 24.451 -2.84217e-014 -1.03331 2.04916 -0.05303 0 24.3506 2.21369 8.4794 18.1193 10.9744 0 14.0455 -2.0065 -10.3939 1.72511 10.2648 4.0594 22.2558 -0.272799 20.0252 0.355716 -3.69669 12.0298 0 0 -19.0333 4.19227 0.127032 31.2689 0 0 1.8362 -2.79524 2.58342 28.0275 2.84217e-014 0 28.0209 -1.5886 5.0027 -3.96464 22.2558 -0.272799 -17.5002 -2.47717 -0.0579076 -12.0298 0 0 10.348 4.92934 8.73583 -31.2689 0 0 0.252939 -0.398579 -4.2659 -28.0275 -2.84217e-014 0 -7.89908 -0.434168 0.651032 10.0325 1.42109e-014 2.84217e-014 0.842829 5.19863 0.408684 0 -38.4033 0 -3.11106 5.009 -4.71043 0 -44.1642 -2.84217e-014 3.32627 -7.28203 17.0347 0 -6.52112 15.0487 -2.60905e-016 1.73937e-016 -0 -10.0325 1.42109e-014 0 -1.96434 -2.20842 3.23774 3.55271e-015 -38.4033 0 2.13018 18.3787 -2.24914 7.10543e-015 -44.1642 2.84217e-014 1.88463 -13.4573 -8.58626 0 -6.52112 15.0487 -1.78596e-016 1.2424e-017 1.59028e-015 
0 0 0 0 0 -0 -22.9147 85.9155 -211.727 0.753565 -2.81754 3.30677 -3.55271e-015 8.22665 2.84217e-014 -0.276154 -4.18424 -0.0787983 -1.77636e-015 24.451 0 -1.02347 2.04916 -0.05303 1.77636e-015 24.3506 2.21369 8.44189 18.1219 10.9973 0 14.0455 -2.0065 -10.3413 1.71321 10.2939 4.0594 22.2558 -0.272799 20.0146 0.332602 -3.69668 12.0298 0 0 -19.0346 4.19416 0.144546 31.2689 -2.84217e-014 0 1.83557 -2.78362 2.58123 28.0275 0 0 28.0344 -1.57861 4.99273 -3.96464 22.2558 -0.272799 -17.5049 -2.47717 -0.0579076 -12.0298 2.84217e-014 2.84217e-014 10.3499 4.90974 8.74903 -31.2689 2.84217e-014 2.84217e-014 0.263296 -0.408293 -4.2659 -28.0275 -2.84217e-014 -2.84217e-014 -7.8988 -0.444844 0.671799 10.0325 1.42109e-014 2.84217e-014 0.844474 5.19852 0.390539 1.77636e-015 -38.4033 0 -3.11849 5.00483 -4.65698 0 -44.1642 0 3.33033 -7.28307 17.0077 0 -6.52112 15.0487 2.48481e-017 -4.96962e-017 3.18055e-015 -10.0325 1.42109e-014 0 -1.96442 -2.21952 3.2194 0 -38.4033 -2.84217e-014 2.11531 18.3924 -2.26463 3.55271e-015 -44.1642 0 1.93069 -13.4584 -8.55315 0 -6.52112 15.0487 -4.79879e-016 -1.2424e-017 -7.95139e-016 
0 0 0 0 0 -0 -22.9106 85.9144 -211.727 0.749145 -2.82303 3.30679 3.55271e-015 8.22665 0 -0.281318 -4.18113 -0.078798 -1.77636e-015 24.451 0 -1.00395 2.04916 -0.05303 -3.55271e-015 24.3506 2.21369 8.44636 18.136 11.0127 7.10543e-015 14.0455 -2.0065 -10.3608 1.68663 10.3063 4.0594 22.2558 -0.272799 20.0066 0.324474 -3.69668 12.0298 0 2.84217e-014 -19.046 4.20569 0.15205 31.2689 2.84217e-014 0 1.84761 -2.7858 2.56934 28.0275 2.84217e-014 2.84217e-014 28.0547 -1.57661 5.00602 -3.96464 22.2558 -0.272799 -17.5211 -2.47566 -0.0579075 -12.0298 2.84217e-014 2.84217e-014 10.3534 4.89567 8.7337 -31.2689 0 0 0.268691 -0.395609 -4.25233 -28.0275 0 0 -7.90261 -0.431495 0.662012 10.0325 -1.42109e-014 2.84217e-014 0.83836 5.21423 0.420767 -1.77636e-015 -38.4033 0 -3.09899 4.98377 -4.66148 0 -44.1642 0 3.33975 -7.28428 16.9763 0 -6.52112 15.0487 1.36664e-016 4.96962e-017 -0 -10.0325 -1.42109e-014 0 -1.9637 -2.21732 3.24314 3.55271e-015 -38.4033 0 2.12521 18.3955 -2.26978 0 -44.1642 0 1.91346 -13.4538 -8.55901 7.10543e-015 -6.52112 15.0487 2.90412e-016 -1.2424e-017 7.95139e-016 
0 0 0 0 0 -0 -22.8912 85.9139 -211.727 0.780852 -2.87076 3.30858 0 8.22665 -2.84217e-014 -0.287754 -4.14134 -0.081042 -5.32907e-015 24.451 0 -1.03092 2.04916 -0.05303 -3.55271e-015 24.3506 2.21369 8.45221 18.1348 11.0385 7.10543e-015 14.0455 -2.0065 -10.3606 1.69416 10.334 4.0594 22.2558 -0.272799 20.0112 0.34043 -3.69668 12.0298 -2.84217e-014 0 -19.0332 4.18024 0.150104 31.2689 2.84217e-014 0 1.84836 -2.80507 2.56394 28.0275 0 0 28.0555 -1.59567 5.00651 -3.96464 22.2558 -0.272799 -17.5149 -2.45321 -0.0579065 -12.0298 0 0 10.347 4.89121 8.73841 -31.2689 0 2.84217e-014 0.266212 -0.404811 -4.25981 -28.0275 0 -2.84217e-014 -7.88349 -0.440714 0.6645 10.0325 -1.42109e-014 0 0.791003 5.28643 0.356973 1.77636e-015 -38.4033 0 -3.09408 4.95762 -4.62938 0 -44.1642 2.84217e-014 3.35048 -7.28307 17.0078 0 -6.52112 15.0487 -3.66509e-016 0 -3.18055e-015 -10.0325 -1.42109e-014 0 -2.02138 -2.14328 3.2931 0 -38.4033 2.84217e-014 2.17129 18.3721 -2.25099 -3.55271e-015 -44.1642 0 1.85003 -13.5139 -8.6272 -7.10543e-015 -6.52112 15.0487 -1.80537e-016 6.21202e-018 1.59028e-015 
0 0 0 0 0 -0 -22.8997 85.9134 -211.74 0.75564 -2.82646 3.29041 0 8.22665 0 -0.288297 -4.17494 -0.0793918 -3.55271e-015 24.451 2.84217e-014 -1.00922 2.03462 -0.051606 -5.32907e-015 24.3506 2.21369 8.45103 18.1295 11.0544 -7.10543e-015 14.0455 -2.0065 -10.3529 1.69882 10.3524 4.0594 22.2558 -0.272799 20.0163 0.335123 -3.69668 12.0298 0 0 -19.0447 4.17785 0.15159 31.2689 0 0 1.84676 -2.79281 2.55944 28.0275 2.84217e-014 -2.84217e-014 28.0537 -1.58693 4.9929 -3.96464 22.2558 -0.272799 -17.5108 -2.45159 -0.0579065 -12.0298 0 2.84217e-014 10.3458 4.87119 8.74369 -31.2689 -2.84217e-014 0 0.262428 -0.386284 -4.26381 -28.0275 2.84217e-014 0 -7.84651 -0.423225 0.678935 10.0325 0 2.84217e-014 0.833993 5.21268 0.377516 -1.77636e-015 -38.4033 2.84217e-014 -3.12388 4.99469 -4.66454 3.55271e-015 -44.1642 2.84217e-014 3.33896 -7.28131 17.0534 0 -6.52112 15.0487 -2.42269e-016 9.93923e-017 -3.18055e-015 -10.0325 0 2.84217e-014 -1.97897 -2.2204 3.25281 0 -38.4033 0 2.13232 18.4051 -2.23905 1.06581e-014 -44.1642 0 1.88495 -13.4579 -8.61063 7.10543e-015 -6.52112 15.0487 -6.53815e-016 1.2424e-017 -7.95139e-016 
